<?xml version="1.0" encoding="UTF-8" standalone="no"?>
<svg
   enable-background="new 0 0 91 91"
   height="46.176785"
   id="Layer_1"
   version="1.1"
   viewBox="0 0 50.223473 46.176785"
   width="50.223473"
   xml:space="preserve"
   sodipodi:docname="brush-icon.svg"
   inkscape:version="1.2.1 (9c6d41e410, 2022-07-14)"
   xmlns:inkscape="http://www.inkscape.org/namespaces/inkscape"
   xmlns:sodipodi="http://sodipodi.sourceforge.net/DTD/sodipodi-0.dtd"
   xmlns="http://www.w3.org/2000/svg"
   xmlns:svg="http://www.w3.org/2000/svg"><defs
     id="defs501" /><sodipodi:namedview
     id="namedview499"
     pagecolor="#ffffff"
     bordercolor="#666666"
     borderopacity="1.0"
     inkscape:showpageshadow="2"
     inkscape:pageopacity="0.0"
     inkscape:pagecheckerboard="0"
     inkscape:deskcolor="#d1d1d1"
     showgrid="false"
     inkscape:zoom="5.7692308"
     inkscape:cx="28.08"
     inkscape:cy="25.393333"
     inkscape:window-width="1366"
     inkscape:window-height="706"
     inkscape:window-x="-8"
     inkscape:window-y="501"
     inkscape:window-maximized="1"
     inkscape:current-layer="Layer_1" /><g
     id="g496"
     transform="translate(-20.797677,-23.409216)"><path
       d="m 26.618,69.43 c 0.58,0.078 1.414,0.156 2.41,0.156 4.28,0 11.537,-1.473 14.468,-10.706 L 69.475,32.514 c 2.083,-2.113 2.059,-5.529 -0.058,-7.615 -2.043,-2.008 -5.6,-1.984 -7.612,0.059 L 36.043,51.105 c -4.038,0.211 -10.714,2.785 -11.685,11.363 -0.137,0.382 -0.695,1.697 -1.9,1.906 -1.168,0.202 -1.675,1.088 -1.66,1.875 0.04,2.094 3.663,2.892 5.82,3.181 z M 64.227,27.342 c 0.736,-0.746 2.058,-0.758 2.805,-0.02 0.779,0.768 0.789,2.025 0.021,2.805 L 47.09,50.39 44.264,47.607 Z m -22.35,22.685 2.826,2.783 -2.706,2.747 -2.825,-2.783 z M 27.67,63.271 27.721,63 c 0.742,-7.223 6.361,-8.323 8.377,-8.481 l 3.962,3.905 c -1.288,3.609 -3.525,6.006 -6.684,7.101 -2.618,0.905 -5.286,0.755 -7.163,0.392 0.792,-0.892 1.26,-1.915 1.457,-2.646 z"
       id="path494" /></g></svg>
