<?xml version="1.0" encoding="UTF-8" standalone="no"?>
<svg
   enable-background="new 0 0 512 512"
   id="Layer_1"
   version="1.1"
   viewBox="0 0 498.35828 498.5184"
   xml:space="preserve"
   sodipodi:docname="fb-icon.svg"
   width="498.35828"
   height="498.5184"
   inkscape:version="1.2.1 (9c6d41e410, 2022-07-14)"
   xmlns:inkscape="http://www.inkscape.org/namespaces/inkscape"
   xmlns:sodipodi="http://sodipodi.sourceforge.net/DTD/sodipodi-0.dtd"
   xmlns="http://www.w3.org/2000/svg"
   xmlns:svg="http://www.w3.org/2000/svg"><defs
     id="defs2253" /><sodipodi:namedview
     id="namedview2251"
     pagecolor="#ffffff"
     bordercolor="#666666"
     borderopacity="1.0"
     inkscape:showpageshadow="2"
     inkscape:pageopacity="0.0"
     inkscape:pagecheckerboard="0"
     inkscape:deskcolor="#d1d1d1"
     showgrid="false"
     inkscape:zoom="1.0253906"
     inkscape:cx="226.25524"
     inkscape:cy="248.1981"
     inkscape:window-width="1366"
     inkscape:window-height="706"
     inkscape:window-x="-8"
     inkscape:window-y="501"
     inkscape:window-maximized="1"
     inkscape:current-layer="Layer_1" /><g
     id="g2248"
     transform="translate(-9.829991,-8.6849332)"><path
       d="M 258.8,507.2 C 120.4,507.8 6.6,392.6 9.9,251.9 13,117.9 124,7.2 262,8.7 398.7,10.2 511.8,124 508.1,264.9 504.6,398.3 394.5,507.9 258.8,507.2 Z M 40.2,258.3 C 41.3,383.6 142.9,480.1 262.9,478 379.1,475.9 477.6,381.2 477.6,258 477.6,132.7 375.2,35.8 254.8,38.1 138.6,40.2 41,135.2 40.2,258.3 Z"
       id="path2244" /><path
       d="m 206.8,433.4 c 0,-58.9 0,-117.3 0,-176.3 -13,0 -25.6,0 -38.5,0 0,-20 0,-39.4 0,-59.4 1.7,-0.1 3.4,-0.3 5.2,-0.3 9.3,0 18.7,-0.2 28,0.1 4.1,0.1 5.5,-1 5.4,-5.2 -0.2,-15.2 -0.2,-30.3 -0.1,-45.5 0.1,-17.1 4.9,-32.6 17.1,-45 11.8,-12 26.9,-18.5 43.3,-19.5 26.4,-1.5 52.9,-1.3 79.4,-1.8 0.3,0 0.6,0.3 1.2,0.6 0,20.1 0,40.3 0,61 -1.9,0.1 -3.7,0.2 -5.4,0.2 -12,0 -24,0 -36,0 -12.1,0.1 -19.2,7.3 -19.2,19.2 0,11.3 0,22.7 0.1,34 0,0.3 0.2,0.6 0.5,1.7 19.8,0 39.8,0 60.8,0 -2.6,20.3 -5,39.7 -7.6,59.8 -18.1,0 -35.8,0 -54,0 0,59.2 0,117.8 0,176.6 -26.9,-0.2 -53.1,-0.2 -80.2,-0.2 z"
       id="path2246" /></g></svg>
