<?xml version="1.0" encoding="UTF-8" standalone="no"?>
<svg
   width="31.99935"
   height="31.492462"
   viewBox="0 0 31.99935 31.492462"
   version="1.1"
   id="svg2117"
   sodipodi:docname="inkscape-icon.svg"
   inkscape:version="1.2.1 (9c6d41e410, 2022-07-14)"
   xmlns:inkscape="http://www.inkscape.org/namespaces/inkscape"
   xmlns:sodipodi="http://sodipodi.sourceforge.net/DTD/sodipodi-0.dtd"
   xmlns="http://www.w3.org/2000/svg"
   xmlns:svg="http://www.w3.org/2000/svg">
  <defs
     id="defs2121" />
  <sodipodi:namedview
     id="namedview2119"
     pagecolor="#ffffff"
     bordercolor="#666666"
     borderopacity="1.0"
     inkscape:showpageshadow="2"
     inkscape:pageopacity="0.0"
     inkscape:pagecheckerboard="0"
     inkscape:deskcolor="#d1d1d1"
     showgrid="false"
     inkscape:zoom="16.40625"
     inkscape:cx="14.750476"
     inkscape:cy="15.817143"
     inkscape:window-width="1366"
     inkscape:window-height="706"
     inkscape:window-x="-8"
     inkscape:window-y="501"
     inkscape:window-maximized="1"
     inkscape:current-layer="svg2117" />
  <path
     d="m 15.826767,4.7828396e-4 c -0.99,-0.016000004 -1.953,0.36999999604 -2.656,1.07300001604 l -11.766,12.0469997 c -4.458,4.453 2.885,4.083 5.536,5.771 1.229,0.802 -3.938,1.828 -2.885,2.885 1.031,1.057 6.203,2.026 7.229,3.057 1.031,1.052 -2.083,2.167 -1.057,3.224 1,1.057 3.401,0.057 3.828,2.453 0.313,1.771 4.401,0.891 6.229,-0.625 1.141,-0.974 -1.974,-0.974 -0.943,-2.031 2.573,-2.599 4.854,-1.167 5.797,-3.568 0.516,-1.281 -3.885,-2.198 -2.714,-3.026 2.802,-1.969 13.083,-2.969 8.344,-7.708 l -12.198,-12.4789997 c -0.745,-0.69800002 -1.724,-1.07800002 -2.745,-1.07300001604 z m 0.099,1.14600001604 c 0.708,0.005 1.417,0.266 1.927,0.776 l 4.656,4.745 c 0.432,0.427 0.432,1.313 0.172,1.568 l -2.313,-1.88 -0.458,2.771 -1.911,-1.031 -3.115,1.9689997 -1.026,-4.1349997 -1.656,3.594 -4.146,-0.026 c -0.797,0 -0.682,-0.828 0.146,-1.656 1.625,-1.802 4.797,-4.854 5.797,-5.911 0.516,-0.531 1.219,-0.786 1.927,-0.781 z m 13.011,21.6979997 c -0.99,0.036 -1.995,0.531 -2.255,1.443 0,0.599 4.656,0.943 4.401,-0.141 -0.188,-0.917 -1.156,-1.339 -2.146,-1.302 z m -20.464,2.594 c -1.344,0.078 -2.781,1.057 -1.641,2.016 1.052,0.917 2.656,-0.198 3.167,-1.479 -0.318,-0.422 -0.911,-0.573 -1.521,-0.531 h -0.005 z m 17.641,0.104 c -1.318,1.198 0.224,2.458 1.51,1.63 0.344,-0.234 -0.026,-1.344 -1.51,-1.63 z"
     id="path2115" />
</svg>
