<?xml version="1.0" ?><svg id="Capa_1" style="enable-background:new 0 0 445.9 432.4;" version="1.1" viewBox="0 0 445.9 432.4" xml:space="preserve" xmlns="http://www.w3.org/2000/svg" xmlns:xlink="http://www.w3.org/1999/xlink"><path d="M445.5,297.9c-1.3-7.7-5.5-14.5-11.9-19.1c-6.4-4.6-14.2-6.4-21.9-5.1c-16,2.7-26.8,17.8-24.2,33.8c0.6,3.8,2,7.3,3.9,10.5  c-22.5,21-69.6,55-139.5,57.6c-1.3-4-3.5-7.6-6.3-10.7l68.2-102.6c8.3-12.5,10.4-27.8,5.8-42l-37.8-117c21.9-2.2,39-20.6,39-43v-17  c0-23.9-19.4-43.3-43.3-43.3H174.1c-23.9,0-43.3,19.4-43.3,43.3v17c0,20.9,14.9,38.4,34.6,42.4l-38.1,117.6  c-4.6,14.2-2.5,29.6,5.8,42l68.7,103.4c-1.6,1.9-3,3.9-4.1,6.1c-84.2-11.1-118-3.8-148.4,9.8c-0.9-0.8-1.9-1.6-2.9-2.4  c-6.4-4.6-14.2-6.4-21.9-5.1c-16,2.7-26.8,17.8-24.2,33.8c1.3,7.7,5.5,14.5,11.9,19.1c5,3.6,10.9,5.5,17,5.5c1.6,0,3.3-0.1,4.9-0.4  c15-2.5,25.4-16,24.5-30.8c27.6-12.1,57.9-18.6,137.2-7.9c1.9,6.2,5.7,11.6,11,15.5c5,3.6,10.9,5.5,17,5.5c1.6,0,3.3-0.1,4.9-0.4  c9.9-1.6,17.8-8.1,21.8-16.6c51.3-1.5,90.8-18.4,117-34.3c18.2-11.1,32-22.8,41.4-31.9c2.4,0.6,4.9,1,7.4,1c1.6,0,3.3-0.1,4.9-0.4  C437.3,329,448.1,313.8,445.5,297.9z M30.7,410.7c-2,0.3-4.1-0.1-5.8-1.3c-1.7-1.2-2.8-3-3.1-5c-0.2-1.5-0.1-2.9,0.5-4.3  c0.2-0.5,0.5-1,0.8-1.5c1.2-1.7,3-2.8,5-3.1c0.4-0.1,0.9-0.1,1.3-0.1c1.6,0,3.2,0.5,4.5,1.4c1.7,1.2,2.8,3,3.1,5  c0.3,2-0.1,4.1-1.3,5.8c-1.1,1.6-2.7,2.6-4.6,3C30.9,410.6,30.8,410.7,30.7,410.7z M228.5,378.6c1.7,1.2,2.8,3,3.1,5  c0.3,2-0.1,4.1-1.3,5.8c-1.2,1.7-3,2.8-5,3.1c-2,0.3-4.1-0.1-5.8-1.3c-1.7-1.2-2.8-3-3.1-5c-0.3-2,0.1-4.1,1.3-5.8  c1.1-1.5,2.6-2.5,4.4-3h4C226.9,377.6,227.8,378,228.5,378.6z M224.6,238.7c-3.4,0-6.2-2.8-6.2-6.2s2.8-6.2,6.2-6.2s6.2,2.8,6.2,6.2  S228,238.7,224.6,238.7z M152.4,60.2v-17c0-11.9,9.7-21.6,21.6-21.6h103.3c11.9,0,21.6,9.7,21.6,21.6v17c0,11.9-9.7,21.6-21.6,21.6  H174.1C162.1,81.8,152.4,72.1,152.4,60.2z M148,226.9l39.9-123.4H259l39.9,123.4c2.6,7.9,1.4,16.5-3.2,23.4l-61.4,92.4v-84.2  c10.6-3.9,18.2-14.1,18.2-26.1c0-15.4-12.5-27.9-27.9-27.9c-15.4,0-27.9,12.5-27.9,27.9c0,11.1,6.5,20.6,15.9,25.1v85.2l-61.4-92.4  C146.6,243.4,145.4,234.8,148,226.9z M422.8,307.2c-1.1,1.6-2.8,2.6-4.7,3c-0.1,0-0.2,0.1-0.4,0.1c-2,0.3-4.1-0.1-5.8-1.3  c-1.7-1.2-2.8-3-3.1-5c0-0.2,0-0.5,0-0.7c-0.1-1.8,0.3-3.6,1.4-5c1.2-1.7,3-2.8,5-3.1c0.4-0.1,0.9-0.1,1.3-0.1  c1.6,0,3.2,0.5,4.5,1.4c1.7,1.2,2.8,3,3.1,5C424.5,303.4,424,305.5,422.8,307.2z"/></svg>